
<svg xmlns="http://www.w3.org/2000/svg" viewBox="0 0 800 500" width="100%" height="100%">
  <style>
    .bg { fill: #0A0A0A; }
    .line { stroke: #D3122A; stroke-width: 2; opacity: 0.9; }
    .node { fill: #D3122A; }
    .text-label { fill: #D3122A; font-family: 'Helvetica Neue', Helvetica, Arial, sans-serif; font-size: 24px; font-weight: 400; text-anchor: middle; dominant-baseline: central; }
    .text-center { fill: #D3122A; font-family: 'Helvetica Neue', Helvetica, Arial, sans-serif; font-size: 32px; font-weight: 500; letter-spacing: 4px; text-anchor: middle; dominant-baseline: central; }
  </style>
  <rect width="100%" height="100%" class="bg" />
  <g>
    <line x1="400" y1="80" x2="533" y2="177" class="line" />
    <line x1="533" y1="177" x2="482" y2="334" class="line" />
    <line x1="482" y1="334" x2="318" y2="334" class="line" />
    <line x1="318" y1="334" x2="267" y2="177" class="line" />
    <line x1="267" y1="177" x2="400" y2="80" class="line" />
    <line x1="400" y1="80" x2="482" y2="334" class="line" />
    <line x1="400" y1="80" x2="318" y2="334" class="line" />
    <line x1="533" y1="177" x2="318" y2="334" class="line" />
    <line x1="533" y1="177" x2="267" y2="177" class="line" />
    <line x1="482" y1="334" x2="267" y2="177" class="line" />
  </g>
  <g>
    <circle cx="400" cy="80" r="16" class="node" />
    <circle cx="533" cy="177" r="16" class="node" />
    <circle cx="482" cy="334" r="16" class="node" />
    <circle cx="318" cy="334" r="16" class="node" />
    <circle cx="267" cy="177" r="16" class="node" />
  </g>
  <g class="text-label">
    <text x="400" y="40">D</text>
    <text x="575" y="177">T</text>
    <text x="512" y="375">A</text>
    <text x="288" y="375">P</text>
    <text x="225" y="177">M</text>
  </g>
  <text x="402" y="222" class="text-center">AIM</text>
</svg>
